<svg viewBox="0 0 500 500" xmlns="http://www.w3.org/2000/svg"><g fill="none" fill-rule="evenodd"><g fill="#000"><path d="m21 127.79c0 0 16.13-3.737 22.804-3.737 2.597 0 13.147 4.896 13.147 5.59 0 1.359 1.502 75.73 1.502 75.73 0 0 43.867-26.602 60.779-4.01 7.947 10.617 6.651 40.19 6.43 68.19-.249 31.588 0 61.27 0 61.27 0 0-32.717 2.042-37.21 0-4.498-2.042 1.292-57.31 0-71.03-1.258-13.356-1.123-20.367-13.511-21.03-37.12-1.999-14.201 92.06-20.16 92.06-11.984 0-37.754 0-37.754 0l3.98-203.04"/><path d="m11.02 122.17h14.295c5.511 0 26.717-3.576 26.717-2.149v72.73c0 0 43.39-23.721 60.948 0 8.249 11.147 6.903 42.19 6.674 71.59-.259 33.16 0 64.33 0 64.33 0 0-33.04.471-37.709-1.673-4.669-2.144-2.2-58.28-3.541-72.69-1.306-14.02-3.384-22.299-11.4-22.299-25.856 0-12.48 96.66-18.668 96.66-12.438 0-37.32 0-37.32 0v-206.51"/></g><path d="m13 124h13.584c5.31 0 22.367-2.719 22.367-1.359 0 1.359 1.502 75.73 1.502 75.73 0 0 43.867-26.602 60.779-4.01 7.947 10.617 6.651 40.19 6.43 68.19-.249 31.588 0 61.27 0 61.27 0 0-29.707 2.042-34.21 0-4.498-2.042-1.718-57.31-3.01-71.03-1.258-13.356-2.618-22.912-15.01-22.912-31.34 0-12.701 93.94-18.663 93.94-11.984 0-33.774 0-33.774 0v-199.83" fill="#fafbd0"/><path d="m188.66 316.74c4.484.2 4.457 19.75 30.26 15.384 1.498-.253-4.235-21.23-2.769-21.48 27.542-4.768 43.25-13.759 45.897-45.08 2.163-25.599-22.716-67.08-67.2-63.89-44.48 3.193-71.28 25.818-69.771 58.875 1.659 36.428 34.03 54.874 63.58 56.19" fill="#000"/><path d="m191.06 312.85c4.484.2-.712 20.534 25.09 16.17 1.498-.253-5.963-19.541-4.496-19.795 27.542-4.768 44.27-14.208 46.913-45.531 2.163-25.599-19.638-61.92-64.12-58.727-44.48 3.193-68.59 21.766-67.08 54.823 1.659 36.428 34.14 51.742 63.69 53.06" fill="#fafbd0"/><path d="m275.35 316.73c9.471 8.37 31.859 15.879 43.864 15.879 16.935 0 42.587 3.449 52.29-12.636 7.07-11.718 8.667-38.647 8.667-54.699 0-19.695-.25-53.19-10.878-67.03-3.956-5.151-8.685-10.652-16.337-13.794-11.545-4.74-27.09-5.82-35.592-5.82-12.499 0-38.29.537-46.983 10.984-11.669 14.02-10.312 46.03-10.312 67.854 0 22.466 1.658 47.23 15.281 59.27m31.19-36.596c3.292 3.568 7.868 2.96 12.04 2.96 5.886 0 10.228.196 13.601-6.66 2.457-4.995 3.631-11.397 3.631-18.239 0-8.395 1.743-13.766-1.951-19.666-3.45-5.509-8.05-6.987-12.958-6.987-3.868 0-10.467 3.37-10.799 3.858-4.056 5.976-3.565 13.492-3.565 22.794 0 9.576-4.735 16.807 0 21.938" fill="#000"/><path d="m279.99 316.09c9.471 8.37 27.23 8.737 39.24 8.737 16.935 0 35.724 2.712 45.43-13.374 7.07-11.718 7.573-39.534 7.573-55.59 0-19.695 1.687-46.712-8.941-60.55-9.924-12.924-31.675-13.344-45.81-13.344-12.499 0-36.572-.306-45.27 10.141-11.669 14.02-8.932 43.861-8.932 65.68 0 22.466 3.091 46.25 16.714 58.29m22.945-34.456c3.292 3.568 11.433 3.203 15.606 3.203 5.886 0 11.941-.393 15.314-7.249 2.457-4.995 3.108-15.302 3.108-22.14 0-8.395.586-19.91-3.108-25.81-3.45-5.509-10.401-6.263-15.314-6.263-3.868 0-15.275 4.707-15.606 5.195-4.056 5.976-3.841 18.398-3.841 27.7 0 9.576-.894 20.236 3.841 25.368" fill="#fafbd0"/><path d="m397.24 227.3c0 0-11.11.116-13.523 0-2.096-.101 0-4.247 0-4.247 0 0-6.01-.072-6.01-1.13 0-13.03 1.4-27.976 1.312-36.37-.035-3.317 18.39.21 18.224-1.223-.551-4.758 0-53.48 0-53.48h43.25c0 0-.385 2.453 0 6.414.159 1.633 4.03 0 4.03 0 0 0-.319 34.27 0 45.25.097 3.334 35.532-3.862 35.667 0 .053 1.509.406 4.344 2.512 4.669 2.164.334 4.412-.924 4.694.936 1.101 7.275 4.263 34.48 0 39.18-3.129 3.449-41.22-3.198-41.22 0 0 1.867-.726 26.12 0 47.975.167 5.04 12.569 5.891 18.09 6.214 7.184.42 17.749.597 18.922 1.248 2.073 1.15-1.158 4.406 0 6.077 1.158 1.671 4.212 0 4.212 0 0 0 9.306 38.885 0 41.981-5.474 1.821-35.91 1.424-54.775-5.482-16.312-5.972-27.396-12.292-32.22-24.958-4.82-12.666-3.166-73.06-3.166-73.06" fill="#000"/><path d="m400.28 219.81c0 0-20.13 2.782-20.13 0 0-13.03 1.139-24.462 1.051-32.855-.035-3.317 19.796 1.432 19.63 0-.551-4.758-.551-52.638-.551-52.638h35.941c0 0-.516 34.879 0 52.638.097 3.334 42.17-5.737 42.3-1.875.107 3.059.879 3.761 1.435 7.432 1.101 7.275 4.263 21.18 0 25.875-3.129 3.449-41.514-1.775-41.514 1.423 0 1.867-.726 30.427 0 52.29.167 5.04 11.696 11.376 21.834 12.714 10.369 1.369 19.354-2.298 19.68 0 .163 1.147 7.872 34.966-1.435 38.06-5.474 1.821-32.778 1.211-51.643-5.695-16.312-5.972-24.878-18.269-24.878-18.269l-1.723-79.1" fill="#fafbd0"/><g fill="#000"><path d="m196.26 252.79c9.8-11.613-.112-15.396-3.284-14.161-10.624 4.136-5.078 13.472-7.109 15.286-6.317 5.644-16.491 2.789-16.49 1.175.007-34.587 22.18-39.1 30.26-39.1 8.924 0 21.681 5.04 23.364 22.638 1.684 17.594-12.07 20.02-15.16 27.768-3.088 7.751.507 13.577-1.778 14.749-10.111 5.183-13.09 0-13.09 0 0 0-6.516-16.743 3.284-28.355m-.259 36.585c3.504-2.695 11.842-1.563 11.842-1.563 0 0 2.822 6.462 0 8.891-2.822 2.429-8.899 2.939-11.842 1.118-2.942-1.821-3.504-5.751 0-8.446"/><path d="m94.15 136.23l-16.858-30.443h10.436l9.1 15.935 3.122 8.443 3.657-8.443 9.455-15.935h9.276l-17.04 29.968c2.973 5.312 6.01 10.703 9.1 16.17 3.092 5.47 6.125 10.901 9.1 16.292h-10.168l-10.258-17.719-3.568-8.919-3.657 8.919-10.347 17.719h-9.455l18.11-31.989m42.4-30.443h5.53l1.606 7.968h.803c1.606-3.092 3.687-5.49 6.244-7.195 2.557-1.705 5.441-2.557 8.652-2.557 6.779 0 11.833 2.517 15.16 7.551 3.33 5.03 4.995 13.06 4.995 24.08 0 5.232-.55 9.969-1.65 14.211-1.1 4.241-2.676 7.849-4.727 10.822-2.052 2.973-4.549 5.252-7.492 6.838-2.943 1.586-6.229 2.378-9.856 2.378-1.189 0-2.274-.059-3.256-.178-.981-.119-1.888-.317-2.72-.595-.833-.277-1.665-.595-2.497-.951-.833-.357-1.695-.773-2.587-1.249v25.09h-8.206v-86.22m12.577 11.06c-2.02 2.378-3.479 6.03-4.371 10.941v28.778c1.368 1.268 2.854 2.259 4.46 2.973 1.606.714 3.657 1.07 6.155 1.07 4.817 0 8.593-2.101 11.328-6.303 2.735-4.202 4.103-10.465 4.103-18.789 0-6.739-1.01-12.13-3.03-16.17-2.02-4.04-5.441-6.06-10.258-6.06-3.568 0-6.363 1.189-8.384 3.568"/></g></g></svg>