<?xml version="1.0" encoding="utf-8"?>
<!DOCTYPE svg PUBLIC "-//W3C//DTD SVG 1.1//EN" "http://www.w3.org/Graphics/SVG/1.1/DTD/svg11.dtd">
<svg version="1.1" xmlns="http://www.w3.org/2000/svg" xmlns:xlink="http://www.w3.org/1999/xlink" x="0px" y="0px" width="1024px" height="1024px" viewBox="0 0 1024 1024" enable-background="new 0 0 1024 1024" xml:space="preserve">
<metadata> Free Icon Download -- www.onlinewebfonts.com </metadata>

  <path d="M899.595131 714.488761l-94.749968 0-51.595099 67.222007-91.741447-67.222007c0 0-286.721187 0.279363-286.754956 0.180102-34.839483-0.36225-61.931514-31.104415-61.931514-62.831001l0-429.553243c0-34.574447 27.78481-62.640666 62.031798-62.640666l524.742209 0c34.234709 0 62.010309 28.066219 62.010309 62.640666l0 429.553243C961.60544 686.421518 933.829839 714.488761 899.595131 714.488761zM616.65506 624.311948l49.514717 0 0-50.177819L616.65506 574.134129 616.65506 624.311948zM724.62205 288.132326c-20.614503-19.082614-48.206932-28.66383-82.83766-28.66383-32.69361 0-58.947554 8.928347-78.852906 26.715455-19.882839 17.754363-31.838126 43.37795-35.845393 76.835969l44.662199 5.381567c3.860934-24.959461 11.990079-43.309388 24.38334-55.063083 12.395308-11.742439 27.864628-17.630542 46.372144-17.630542 19.161409 0 35.3276 6.484691 48.523133 19.454074 13.195533 12.969383 19.814278 27.998681 19.814278 45.133943 0 9.456373-2.252297 18.159592-6.777357 26.186406-4.481058 7.981788-14.242376 18.733667-29.327956 32.16456-15.0733 13.44215-25.476231 23.653723-31.286564 30.689976-7.880481 9.626241-13.621229 19.150152-17.144472 28.641317-4.831029 12.552897-7.238868 27.469632-7.238868 44.783972 0 2.950192 0.090051 7.341199 0.24764 13.229303l0 0.021489 41.789779 0c0.337691-17.640776 1.509377-30.352285 3.613294-38.176484 2.104941-7.835456 5.324262-14.781658 9.671267-20.804838 4.344958-6.045693 13.598716-15.400758 27.761274-28.122501 21.122063-18.925025 35.238572-34.989909 42.511209-48.206932 7.251148-13.217023 10.874675-27.66099 10.874675-43.320645C755.535107 330.283332 745.245763 307.203684 724.62205 288.132326zM538.108123 756.49855l0 16.696264c0 25.41074-20.37812 45.956681-45.472658 45.956681L282.447349 819.151495l-67.301825 49.298799-37.827537-49.298799-69.462025 0c-25.128307 0-45.460378-20.545942-45.460378-45.956681L62.395584 458.249819c0-25.39846 20.332071-45.944402 45.460378-45.944402l162.448836-4.093225-0.24764 270.019807c0 0-2.115174 38.940894 12.817933 55.256488 20.383236 22.271236 56.317657 22.740934 56.317657 22.740934L538.108123 756.49855z" />


</svg>